<svg width="1024" height="1025" viewBox="0 0 1024 1025" fill="none" xmlns="http://www.w3.org/2000/svg">
<g clip-path="url(#clip0_102_2)">
<g clip-path="url(#clip1_102_2)">
<path fill-rule="evenodd" clip-rule="evenodd" d="M95.7952 134.59C74.9215 134.59 58 151.512 58 172.386V229.079H454.85L392.332 159.614C377.996 143.686 357.574 134.59 336.146 134.59H95.7952ZM927.291 229.079H58V814.905C58 835.779 74.9215 852.7 95.7952 852.7H927.291C948.164 852.7 965.086 835.779 965.086 814.905V266.874C965.086 246 948.164 229.079 927.291 229.079Z" fill="url(#paint0_linear_102_2)"/>
<path d="M345.23 304.669H95.7952C74.9215 304.669 58 321.591 58 342.464V796.007C58 816.881 74.9215 833.803 95.7953 833.803H927.291C948.164 833.803 965.086 816.881 965.086 796.007V285.771C965.086 264.898 948.164 247.976 927.291 247.976H447.763L389.69 290.211C376.77 299.608 361.205 304.669 345.23 304.669Z" fill="url(#paint1_linear_102_2)"/>
<path fill-rule="evenodd" clip-rule="evenodd" d="M95.7952 304.669H345.23C361.205 304.669 376.77 299.608 389.69 290.211L447.763 247.976H927.291C948.164 247.976 965.086 264.898 965.086 285.771V304.669C965.086 283.795 948.164 266.874 927.291 266.874H447.763L389.69 309.109C376.77 318.505 361.205 323.567 345.23 323.567H95.7952C74.9215 323.567 58 340.488 58 361.362V342.464C58 321.591 74.9215 304.669 95.7952 304.669Z" fill="url(#paint2_linear_102_2)" fill-opacity="0.2"/>
<path d="M209.18 682.622C209.18 620 259.945 569.236 322.566 569.236H700.518C763.14 569.236 813.904 620 813.904 682.622V833.803H209.18V682.622Z" fill="url(#paint3_linear_102_2)"/>
<path d="M341.464 682.622H681.622" stroke="#114A8B" stroke-width="37.7952" stroke-linecap="round"/>
</g>
<mask id="mask0_102_2" style="mask-type:alpha" maskUnits="userSpaceOnUse" x="331" y="-90" width="810" height="810">
<rect x="331.093" y="315.093" width="572.085" height="572.085" transform="rotate(-45 331.093 315.093)" fill="#D9D9D9"/>
</mask>
<g mask="url(#mask0_102_2)">
<path d="M810.507 423.488L743.149 490.846C717.885 516.11 687.542 528.744 652.12 528.748C616.699 528.751 586.37 516.135 561.135 490.9C535.901 465.666 523.24 435.293 523.154 399.782C523.068 364.27 535.658 333.883 560.921 308.619L628.28 241.26L665.618 278.599L598.362 345.855C583.294 360.923 575.744 378.892 575.711 399.763C575.679 420.634 583.173 438.58 598.194 453.601C613.214 468.622 631.182 476.138 652.097 476.149C673.013 476.161 691.004 468.632 706.072 453.565L773.328 386.308L810.507 423.488ZM681.512 401.713L650.214 370.415L791.435 229.194L822.733 260.492L681.512 401.713ZM844.507 389.488L807.328 352.309L874.585 285.052C889.652 269.984 897.202 252.015 897.235 231.144C897.268 210.273 889.774 192.327 874.753 177.306C859.732 162.286 841.764 154.769 820.849 154.758C799.934 154.747 781.942 162.275 766.875 177.342L699.618 244.599L662.28 207.26L729.638 139.902C754.869 114.672 785.268 102.058 820.837 102.062C856.406 102.065 886.807 114.684 912.042 139.919C937.277 165.154 949.864 195.524 949.803 231.028C949.742 266.532 937.096 296.899 911.866 322.129L844.507 389.488Z" fill="#757576"/>
</g>
</g>
<defs>
<linearGradient id="paint0_linear_102_2" x1="133.591" y1="134.59" x2="908.393" y2="852.7" gradientUnits="userSpaceOnUse">
<stop stop-color="#FFBF18"/>
<stop offset="1" stop-color="#E0A42C"/>
</linearGradient>
<linearGradient id="paint1_linear_102_2" x1="133.591" y1="247.976" x2="784.945" y2="964.863" gradientUnits="userSpaceOnUse">
<stop stop-color="#FFE69D"/>
<stop offset="1" stop-color="#FFCB3D"/>
</linearGradient>
<linearGradient id="paint2_linear_102_2" x1="58" y1="247.976" x2="968.071" y2="326.975" gradientUnits="userSpaceOnUse">
<stop stop-color="white"/>
<stop offset="1" stop-color="white" stop-opacity="0"/>
</linearGradient>
<linearGradient id="paint3_linear_102_2" x1="284.771" y1="569.236" x2="757.211" y2="833.803" gradientUnits="userSpaceOnUse">
<stop stop-color="#0E8FE0"/>
<stop offset="1" stop-color="#075BA6"/>
</linearGradient>
<clipPath id="clip0_102_2">
<rect width="1024" height="1024" fill="white" transform="translate(0 0.5)"/>
</clipPath>
<clipPath id="clip1_102_2">
<rect width="907.086" height="907.086" fill="white" transform="translate(58 59)"/>
</clipPath>
</defs>
</svg>
